<svg width="40" height="40" viewBox="0 0 40 40" fill="none" xmlns="http://www.w3.org/2000/svg">
<path d="M36.1803 8.2443C33.6978 4.82735 30.1972 2.28403 26.1803 0.978872C22.1635 -0.326289 17.8365 -0.326291 13.8197 0.978868C9.8028 2.28403 6.30222 4.82734 3.81966 8.24429C1.3371 11.6612 3.69238e-07 15.7764 0 20C-3.69238e-07 24.2236 1.3371 28.3388 3.81966 31.7557C6.30222 35.1727 9.80279 37.716 13.8197 39.0211C17.8365 40.3263 22.1635 40.3263 26.1803 39.0211C30.1972 37.716 33.6978 35.1727 36.1803 31.7557L30.4709 27.6076C28.8644 29.8188 26.599 31.4647 23.9995 32.3093C21.4001 33.154 18.5999 33.154 16.0005 32.3093C13.401 31.4647 11.1356 29.8188 9.52905 27.6076C7.92249 25.3963 7.0572 22.7332 7.0572 20C7.0572 17.2667 7.92249 14.6037 9.52906 12.3924C11.1356 10.1812 13.401 8.53528 16.0005 7.69066C18.5999 6.84604 21.4001 6.84604 23.9995 7.69067C26.599 8.53529 28.8644 10.1812 30.4709 12.3924L36.1803 8.2443Z" fill="#86D845"/>
<circle cx="19.9997" cy="20.0002" r="7.14286" fill="#EF8C37"/>
</svg>
