<svg width="22" height="26" viewBox="0 0 22 26" fill="none" xmlns="http://www.w3.org/2000/svg">
<path d="M11 0.166626L0.5 4.83329V11.8333C0.5 18.3083 4.98 24.3633 11 25.8333C17.02 24.3633 21.5 18.3083 21.5 11.8333V4.83329L11 0.166626ZM11 7.16663C12.6333 7.16663 14.2667 8.44996 14.2667 10.0833V11.8333C14.9667 11.8333 15.6667 12.5333 15.6667 13.35V17.4333C15.6667 18.1333 14.9667 18.8333 14.15 18.8333H7.73333C7.03333 18.8333 6.33333 18.1333 6.33333 17.3166V13.2333C6.33333 12.5333 7.03333 11.8333 7.73333 11.8333V10.0833C7.73333 8.44996 9.36667 7.16663 11 7.16663ZM11 8.56663C10.0667 8.56663 9.25 9.14996 9.25 10.0833V11.8333H12.75V10.0833C12.75 9.14996 11.9333 8.56663 11 8.56663Z" fill="#86D845"/>
</svg>
