<svg width="16" height="16" viewBox="0 0 16 16" fill="none" xmlns="http://www.w3.org/2000/svg">
<path d="M4.7295 12.213C5.75561 13.0107 7.03769 13.4062 8.33487 13.3253C9.63204 13.2444 10.855 12.6926 11.7741 11.7736C12.6931 10.8545 13.2449 9.63156 13.3258 8.33438C13.4067 7.0372 13.0112 5.75512 12.2135 4.72901L4.7295 12.213ZM3.78683 11.2703L11.2708 3.78634C10.2447 2.98865 8.96263 2.59311 7.66546 2.67403C6.36828 2.75495 5.1453 3.30676 4.22627 4.22578C3.30725 5.14481 2.75544 6.36779 2.67452 7.66497C2.5936 8.96215 2.98914 10.2442 3.78683 11.2703ZM8.00016 14.6663C4.31816 14.6663 1.3335 11.6817 1.3335 7.99967C1.3335 4.31767 4.31816 1.33301 8.00016 1.33301C11.6822 1.33301 14.6668 4.31767 14.6668 7.99967C14.6668 11.6817 11.6822 14.6663 8.00016 14.6663Z" fill="#0A1429"/>
</svg>
