<svg width="16" height="16" viewBox="0 0 16 16" fill="none" xmlns="http://www.w3.org/2000/svg">
<path d="M12.0007 10H10.6673V11.3333H12.0007M12.0007 7.33333H10.6673V8.66667H12.0007M13.334 12.6667H8.00065V11.3333H9.33398V10H8.00065V8.66667H9.33398V7.33333H8.00065V6H13.334M6.66732 4.66667H5.33398V3.33333H6.66732M6.66732 7.33333H5.33398V6H6.66732M6.66732 10H5.33398V8.66667H6.66732M6.66732 12.6667H5.33398V11.3333H6.66732M4.00065 4.66667H2.66732V3.33333H4.00065M4.00065 7.33333H2.66732V6H4.00065M4.00065 10H2.66732V8.66667H4.00065M4.00065 12.6667H2.66732V11.3333H4.00065M8.00065 4.66667V2H1.33398V14H14.6673V4.66667H8.00065Z" fill="#6C727F"/>
</svg>
