<svg width="24" height="24" viewBox="0 0 24 24" fill="none" xmlns="http://www.w3.org/2000/svg">
<g id="Icon">
<path id="Subtract" fill-rule="evenodd" clip-rule="evenodd" d="M2 6C2 3.79086 3.79086 2 6 2H18C20.2091 2 22 3.79086 22 6V18C22 20.2091 20.2091 22 18 22H6C3.79086 22 2 20.2091 2 18V6ZM11.4545 7H8C7.44771 7 7 7.44771 7 8V11.4545H11.4545V7ZM12.5455 17H16C16.5523 17 17 16.5523 17 16V12.5455H12.5455L12.5455 17ZM12.5455 18H16C17.1046 18 18 17.1046 18 16V12.5455V12.4545V11.5455V11.4545V8C18 6.89543 17.1046 6 16 6H12.5455H12.4545H11.5455H11.4545H8C6.89543 6 6 6.89543 6 8V11.4545V11.5455V12.4545V12.5455V16C6 17.1046 6.89543 18 8 18H11.4545H11.5455H12.4545H12.5455ZM7 12.5455H11.4545V17H8C7.44771 17 7 16.5523 7 16V12.5455ZM12.5455 11.4545V7H16C16.5523 7 17 7.44771 17 8V11.4545H12.5455Z" fill="#6C727F"/>
</g>
</svg>
