<svg width="96" height="16" viewBox="0 0 96 16" fill="none" xmlns="http://www.w3.org/2000/svg">
<path d="M8 13.2662L3.056 16L4 10.2104L0 6.1116L5.528 5.26684L8 0L10.472 5.26684L16 6.1116L12 10.2104L12.944 16L8 13.2674V13.2662Z" fill="#F08D38"/>
<path d="M28 13.2662L23.056 16L24 10.2104L20 6.1116L25.528 5.26684L28 0L30.472 5.26684L36 6.1116L32 10.2104L32.944 16L28 13.2674V13.2662Z" fill="#F08D38"/>
<path d="M48 13.2662L43.056 16L44 10.2104L40 6.1116L45.528 5.26684L48 0L50.472 5.26684L56 6.1116L52 10.2104L52.944 16L48 13.2674V13.2662Z" fill="#F08D38"/>
<path d="M68 13.2662L63.056 16L64 10.2104L60 6.1116L65.528 5.26684L68 0L70.472 5.26684L76 6.1116L72 10.2104L72.944 16L68 13.2674V13.2662Z" fill="#F08D38"/>
<path d="M88 13.2662L83.056 16L84 10.2104L80 6.1116L85.528 5.26684L88 0L90.472 5.26684L96 6.1116L92 10.2104L92.944 16L88 13.2674V13.2662Z" fill="#F4F4F4"/>
<mask id="mask0_17_7739" style="mask-type:alpha" maskUnits="userSpaceOnUse" x="80" y="0" width="8" height="16">
<rect x="80" width="8" height="16" fill="#D9D9D9"/>
</mask>
<g mask="url(#mask0_17_7739)">
<path d="M88 13.2662L83.056 16L84 10.2104L80 6.1116L85.528 5.26684L88 0L90.472 5.26684L96 6.1116L92 10.2104L92.944 16L88 13.2674V13.2662Z" fill="#F08D38"/>
</g>
</svg>
