<svg width="24" height="24" viewBox="0 0 24 24" fill="none" xmlns="http://www.w3.org/2000/svg">
<g id="Icon">
<path id="Vector" d="M20.0438 11.7563L9.54377 23.0063C9.47571 23.0833 9.39199 23.1448 9.29822 23.1869C9.20445 23.2289 9.10278 23.2504 9.00002 23.25C8.87946 23.2488 8.76079 23.2199 8.65315 23.1656C8.51034 23.0886 8.39597 22.9678 8.3268 22.821C8.25763 22.6743 8.23729 22.5092 8.26877 22.35L9.63752 15.4781L4.23752 13.4531C4.12215 13.4084 4.01928 13.3364 3.93767 13.2434C3.85606 13.1503 3.79812 13.039 3.76877 12.9188C3.74025 12.7981 3.74247 12.6722 3.77522 12.5527C3.80798 12.4331 3.87024 12.3237 3.95627 12.2344L14.4563 0.984389C14.5683 0.869529 14.7143 0.793648 14.8727 0.767898C15.0311 0.742147 15.1936 0.767884 15.3363 0.841328C15.479 0.914771 15.5944 1.03205 15.6654 1.17592C15.7365 1.3198 15.7596 1.48268 15.7313 1.64064L14.3625 8.52189L19.7625 10.5469C19.8785 10.589 19.982 10.6594 20.0639 10.7516C20.1457 10.8439 20.2032 10.9552 20.2312 11.0753C20.2591 11.1954 20.2566 11.3206 20.2239 11.4396C20.1911 11.5585 20.1292 11.6673 20.0438 11.7563Z" fill="white"/>
</g>
</svg>
