<svg width="24" height="24" viewBox="0 0 24 24" fill="none" xmlns="http://www.w3.org/2000/svg">
<g id="Icon">
<path id="Vector" d="M4.37057 5.25C4.06176 5.25 3.80273 5.14237 3.59346 4.92712C3.38492 4.71112 3.28065 4.44375 3.28065 4.125C3.28065 3.80625 3.38492 3.53888 3.59346 3.32288C3.80273 3.10763 4.06176 3 4.37057 3H19.6294C19.9382 3 20.1969 3.10763 20.4054 3.32288C20.6147 3.53888 20.7193 3.80625 20.7193 4.125C20.7193 4.44375 20.6147 4.71112 20.4054 4.92712C20.1969 5.14237 19.9382 5.25 19.6294 5.25H4.37057ZM4.37057 21C4.06176 21 3.80273 20.892 3.59346 20.676C3.38492 20.4608 3.28065 20.1938 3.28065 19.875V14.25H3.08992C2.74478 14.25 2.46322 14.1139 2.24523 13.8416C2.02725 13.5701 1.95459 13.2563 2.02725 12.9L3.11717 7.275C3.17166 7.0125 3.29882 6.79688 3.49864 6.62812C3.69846 6.45937 3.92552 6.375 4.17984 6.375H19.8202C20.0745 6.375 20.3015 6.45937 20.5014 6.62812C20.7012 6.79688 20.8283 7.0125 20.8828 7.275L21.9728 12.9C22.0454 13.2563 21.9728 13.5701 21.7548 13.8416C21.5368 14.1139 21.2552 14.25 20.9101 14.25H20.7193V19.875C20.7193 20.1938 20.6147 20.4608 20.4054 20.676C20.1969 20.892 19.9382 21 19.6294 21C19.3206 21 19.0619 20.892 18.8534 20.676C18.6441 20.4608 18.5395 20.1938 18.5395 19.875V14.25H14.1798V19.875C14.1798 20.1938 14.0756 20.4608 13.867 20.676C13.6578 20.892 13.3987 21 13.0899 21H4.37057ZM5.46049 18.75H12V14.25H5.46049V18.75ZM4.42507 12H19.5749H4.42507ZM4.42507 12H19.5749L18.921 8.625H5.07902L4.42507 12Z" fill="white"/>
</g>
</svg>
