<svg width="21" height="20" viewBox="0 0 21 20" fill="none" xmlns="http://www.w3.org/2000/svg">
<path d="M17.2031 9.79593L8.45308 19.1709C8.39636 19.2351 8.3266 19.2864 8.24846 19.3214C8.17031 19.3565 8.08559 19.3744 7.99996 19.3741C7.89949 19.3731 7.8006 19.349 7.71089 19.3037C7.59189 19.2395 7.49658 19.1389 7.43894 19.0166C7.3813 18.8943 7.36435 18.7567 7.39058 18.6241L8.53121 12.8975L4.03121 11.21C3.93506 11.1727 3.84934 11.1127 3.78133 11.0352C3.71333 10.9577 3.66504 10.8649 3.64058 10.7647C3.61681 10.6641 3.61866 10.5592 3.64596 10.4596C3.67326 10.36 3.72514 10.2688 3.79683 10.1944L12.5468 0.819368C12.6402 0.723651 12.7619 0.660417 12.8939 0.638958C13.0259 0.6175 13.1613 0.638947 13.2802 0.70015C13.3991 0.761353 13.4952 0.859083 13.5545 0.978978C13.6137 1.09887 13.633 1.23461 13.6093 1.36624L12.4687 7.10062L16.9687 8.78812C17.0653 8.82319 17.1516 8.88184 17.2198 8.95874C17.288 9.03563 17.336 9.12834 17.3592 9.22846C17.3825 9.32857 17.3804 9.43291 17.3532 9.53201C17.3259 9.6311 17.2743 9.72182 17.2031 9.79593Z" fill="#35BB25"/>
</svg>
