<svg width="32" height="32" viewBox="0 0 32 32" fill="none" xmlns="http://www.w3.org/2000/svg">
<path d="M7.75 27.8875C7.33333 28.0705 6.9375 28.0302 6.5625 27.7667C6.1875 27.504 6 27.121 6 26.6176V6.74569C6 5.99062 6.245 5.34401 6.735 4.80586C7.22417 4.26862 7.8125 4 8.5 4H16V6.74569H8.5V24.524L14.75 21.5724L21 24.524V14.9827H23.5V26.6176C23.5 27.121 23.3125 27.504 22.9375 27.7667C22.5625 28.0302 22.1667 28.0705 21.75 27.8875L14.75 24.5926L7.75 27.8875ZM8.5 6.74569H16H14.75H8.5ZM22.25 12.2371C21.8958 12.2371 21.5992 12.1053 21.36 11.8417C21.12 11.579 21 11.2532 21 10.8642V9.49137H19.75C19.3958 9.49137 19.0992 9.36004 18.86 9.09737C18.62 8.83378 18.5 8.5075 18.5 8.11853C18.5 7.72956 18.62 7.40328 18.86 7.13969C19.0992 6.87702 19.3958 6.74569 19.75 6.74569H21V5.37284C21 4.98387 21.12 4.65759 21.36 4.39401C21.5992 4.13134 21.8958 4 22.25 4C22.6042 4 22.9008 4.13134 23.14 4.39401C23.38 4.65759 23.5 4.98387 23.5 5.37284V6.74569H24.75C25.1042 6.74569 25.4008 6.87702 25.64 7.13969C25.88 7.40328 26 7.72956 26 8.11853C26 8.5075 25.88 8.83378 25.64 9.09737C25.4008 9.36004 25.1042 9.49137 24.75 9.49137H23.5V10.8642C23.5 11.2532 23.38 11.579 23.14 11.8417C22.9008 12.1053 22.6042 12.2371 22.25 12.2371Z" fill="#0A1429"/>
</svg>
