<svg width="18" height="15" viewBox="0 0 18 15" fill="none" xmlns="http://www.w3.org/2000/svg">
<g id="Black">
<path id="Vector" d="M3.09196 0.080039C2.95596 0.160039 2.94796 0.180039 2.70396 1.06804C2.57596 1.52404 2.57596 1.60804 2.69596 1.74804C2.78396 1.84804 2.97196 1.91204 4.68396 2.38004L6.57596 2.90004L6.62796 3.13204C6.71596 3.52404 6.97996 3.98404 7.29596 4.30004C7.76396 4.76404 8.30796 4.97604 9.01996 4.97604C9.71596 4.97604 10.3 4.74404 10.756 4.28804L10.976 4.06804L11.896 4.32004C13.396 4.72404 14.652 5.04004 14.772 5.04004C14.992 5.04004 15.088 4.88004 15.272 4.19204C15.376 3.80804 15.432 3.52804 15.42 3.46804C15.368 3.27204 15.204 3.17604 14.7 3.04804C13.796 2.81604 12.1 2.36404 11.784 2.27204L11.472 2.18004L11.384 1.88004C11.208 1.27204 10.888 0.824039 10.384 0.488039C9.95596 0.204039 9.67596 0.116039 9.11196 0.0920386C8.70796 0.0720387 8.60796 0.0840387 8.35196 0.160039C7.93596 0.284039 7.63596 0.456039 7.31596 0.752039L7.03996 1.00804L5.18396 0.504039C4.15996 0.228039 3.30396 3.86238e-05 3.27196 3.86238e-05C3.24396 3.86238e-05 3.16396 0.0360389 3.09196 0.080039ZM9.37996 1.75604C9.79596 1.94404 9.99196 2.45204 9.80396 2.86004C9.65196 3.19604 9.37996 3.37604 9.01996 3.38004C8.09996 3.38404 7.83596 2.18004 8.65996 1.74804C8.82396 1.66004 9.18396 1.66404 9.37996 1.75604Z" fill="#151515"/>
<path id="Vector_2" d="M3.46791 3.55607C2.91591 4.50407 2.21191 5.70407 1.48791 6.94007C1.19191 7.44407 0.859908 8.01207 0.751908 8.20007L0.555908 8.54007L0.575908 9.00007C0.595908 9.52807 0.663908 9.80807 0.879908 10.2641C1.40391 11.3921 2.39991 12.1721 3.59991 12.4001C3.93591 12.4641 4.65591 12.4521 5.01991 12.3801C5.75591 12.2281 6.47191 11.8161 7.02791 11.2321C7.39591 10.8401 7.71191 10.2521 7.85991 9.68407C7.94791 9.33207 7.99991 8.74807 7.95591 8.58407C7.91591 8.43607 7.35191 7.44007 6.47591 5.97207C6.17191 5.46007 5.88391 4.96407 5.83591 4.87207C5.75591 4.70807 5.16391 3.70407 4.84391 3.18407L4.69991 2.94807L4.31191 2.86007L3.92391 2.77607L3.46791 3.55607ZM4.69991 4.34807C4.91591 4.72007 5.28791 5.35207 5.52391 5.76007C5.75991 6.16807 6.21191 6.94007 6.53191 7.48007C6.84791 8.02007 7.09991 8.47207 7.09191 8.48807C7.06391 8.54007 1.43991 8.52807 1.43991 8.48007C1.43991 8.45607 1.54391 8.26407 1.67591 8.04807C1.80391 7.83607 2.17991 7.19207 2.50791 6.62007C2.83991 6.04807 3.31991 5.22807 3.57591 4.80007C3.82791 4.37207 4.08391 3.94407 4.13591 3.84807C4.19191 3.75607 4.25191 3.68007 4.27191 3.68007C4.29191 3.68007 4.48391 3.98007 4.69991 4.34807Z" fill="#151515"/>
<path id="Vector_3" d="M13.2558 5.57201C13.1638 5.72801 12.8838 6.21201 12.6318 6.64001C12.3798 7.06801 11.9598 7.78801 11.6998 8.24001C11.4358 8.69201 11.1118 9.24001 10.9798 9.46001C10.8438 9.68001 10.5838 10.128 10.3958 10.46L10.0598 11.06L10.0638 11.384C10.0718 11.924 10.2638 12.608 10.5438 13.112C10.8838 13.724 11.5918 14.364 12.2318 14.648C12.7838 14.896 13.6598 15.012 14.2718 14.924C15.1758 14.792 15.8158 14.468 16.4238 13.836C17.1158 13.116 17.4438 12.352 17.4558 11.46L17.4598 11.02L17.2398 10.64C17.1198 10.432 16.8358 9.94401 16.6038 9.56001C16.3758 9.17601 16.0758 8.66001 15.9398 8.42001C15.7078 8.01201 14.2438 5.51601 14.2198 5.48801C14.2038 5.47201 13.5038 5.28001 13.4598 5.28001C13.4398 5.28001 13.3478 5.41201 13.2558 5.57201ZM14.4318 7.26401C14.7678 7.83201 15.2478 8.66001 15.5038 9.10001C15.7558 9.54001 16.1078 10.14 16.2838 10.436C16.4558 10.728 16.5998 10.984 16.5998 11.004C16.5998 11.048 10.9718 11.052 10.9438 11.008C10.9318 10.988 11.1638 10.568 11.4598 10.068C11.7558 9.57201 12.2038 8.80001 12.4598 8.35201C13.2718 6.94401 13.7278 6.19601 13.7758 6.21201C13.7998 6.22001 14.0958 6.69201 14.4318 7.26401Z" fill="#151515"/>
</g>
</svg>
