<svg width="64" height="64" viewBox="0 0 64 64" fill="none" xmlns="http://www.w3.org/2000/svg">
<path d="M57.8885 13.1909C53.9165 7.72376 48.3155 3.65445 41.8886 1.56619C35.4616 -0.522063 28.5385 -0.522065 22.1115 1.56619C15.6845 3.65444 10.0836 7.72374 6.11146 13.1909C2.13936 18.658 5.9078e-07 25.2423 0 32C-5.9078e-07 38.7577 2.13936 45.342 6.11146 50.8091C10.0836 56.2763 15.6845 60.3456 22.1115 62.4338C28.5384 64.5221 35.4616 64.5221 41.8885 62.4338C48.3155 60.3456 53.9165 56.2762 57.8885 50.8091L48.7535 44.1721C46.183 47.7101 42.5584 50.3435 38.3993 51.6949C34.2401 53.0463 29.7599 53.0463 25.6007 51.6949C21.4416 50.3435 17.817 47.7101 15.2465 44.1721C12.676 40.6341 11.2915 36.3732 11.2915 32C11.2915 27.6268 12.676 23.3659 15.2465 19.8279C17.817 16.2899 21.4416 13.6565 25.6007 12.3051C29.7599 10.9537 34.2401 10.9537 38.3993 12.3051C42.5584 13.6565 46.183 16.2899 48.7535 19.8279L57.8885 13.1909Z" fill="#86D845"/>
<circle cx="32.0002" cy="32.0002" r="11.4286" fill="#EF8C37"/>
</svg>
