<svg width="24" height="24" viewBox="0 0 24 24" fill="none" xmlns="http://www.w3.org/2000/svg">
<path d="M7.5 8.53333H16.5M7.5 13.0667H14.25M12 21L8.625 17.6H6.375C5.47989 17.6 4.62145 17.2418 3.98851 16.6042C3.35558 15.9665 3 15.1017 3 14.2V7.4C3 6.49826 3.35558 5.63346 3.98851 4.99584C4.62145 4.35821 5.47989 4 6.375 4H17.625C18.5201 4 19.3786 4.35821 20.0115 4.99584C20.6444 5.63346 21 6.49826 21 7.4V14.2C21 15.1017 20.6444 15.9665 20.0115 16.6042C19.3786 17.2418 18.5201 17.6 17.625 17.6H15.375L12 21Z" stroke="#6C727F" stroke-width="2" stroke-linecap="round" stroke-linejoin="round"/>
</svg>
