<svg width="14" height="14" viewBox="0 0 14 14" fill="none" xmlns="http://www.w3.org/2000/svg">
<path d="M7 2.33333L5.78083 3.5525L7 4.77167M2.49083 1.75L1.75 2.49083L4.50917 5.25H1.75V8.75H4.08333L7 11.6667V7.74083L9.47917 10.2258C9.08833 10.5233 8.65083 10.7683 8.16667 10.9083V12.1158C8.97167 11.9292 9.70083 11.5617 10.3133 11.06L11.5092 12.25L12.25 11.5092L7 6.25917M11.0833 7C11.0833 7.54833 10.9667 8.06167 10.7683 8.54L11.6492 9.42083C12.0428 8.67457 12.249 7.84373 12.25 7C12.25 4.50333 10.5 2.415 8.16667 1.88417V3.08583C9.8525 3.5875 11.0833 5.15083 11.0833 7ZM9.625 7C9.625 5.9675 9.04167 5.08083 8.16667 4.64917V5.93833L9.59583 7.3675C9.625 7.25083 9.625 7.1225 9.625 7Z" fill="#D3D2D3"/>
</svg>
