<svg width="28" height="28" viewBox="0 0 28 28" fill="none" xmlns="http://www.w3.org/2000/svg">
<path d="M12.8333 19.2501V12.8334H15.1666V19.2501H12.8333ZM14 10.5001C13.6694 10.5001 13.3921 10.3881 13.1681 10.1641C12.9441 9.94008 12.8325 9.6632 12.8333 9.33342C12.8333 9.00286 12.9453 8.72558 13.1693 8.50158C13.3933 8.27758 13.6702 8.16597 14 8.16675C14.3305 8.16675 14.6078 8.27875 14.8318 8.50275C15.0558 8.72675 15.1674 9.00364 15.1666 9.33342C15.1666 9.66397 15.0546 9.94125 14.8306 10.1653C14.6066 10.3893 14.3298 10.5009 14 10.5001ZM8.16665 26.8334C7.52498 26.8334 6.97548 26.6048 6.51815 26.1474C6.06081 25.6901 5.83254 25.141 5.83331 24.5001V3.50008C5.83331 2.85842 6.06198 2.30892 6.51931 1.85158C6.97665 1.39425 7.52576 1.16597 8.16665 1.16675H19.8333C20.475 1.16675 21.0245 1.39542 21.4818 1.85275C21.9391 2.31008 22.1674 2.85919 22.1666 3.50008V24.5001C22.1666 25.1418 21.938 25.6913 21.4806 26.1486C21.0233 26.6059 20.4742 26.8342 19.8333 26.8334H8.16665ZM8.16665 21.0001H19.8333V7.00008H8.16665V21.0001Z" fill="#86D845"/>
</svg>
