<svg width="20" height="20" viewBox="0 0 20 20" fill="none" xmlns="http://www.w3.org/2000/svg">
<g id="Profile Icons">
<path id="Vector" d="M6.45825 18.3333C5.99992 18.3333 5.6077 18.1702 5.28158 17.8441C4.95492 17.5175 4.79159 17.125 4.79159 16.6666C4.79159 16.2083 4.95492 15.8158 5.28158 15.4891C5.6077 15.163 5.99992 15 6.45825 15C6.91658 15 7.30881 15.163 7.63492 15.4891C7.96159 15.8158 8.12492 16.2083 8.12492 16.6666C8.12492 17.125 7.96159 17.5175 7.63492 17.8441C7.30881 18.1702 6.91658 18.3333 6.45825 18.3333ZM14.7916 18.3333C14.3333 18.3333 13.941 18.1702 13.6149 17.8441C13.2883 17.5175 13.1249 17.125 13.1249 16.6666C13.1249 16.2083 13.2883 15.8158 13.6149 15.4891C13.941 15.163 14.3333 15 14.7916 15C15.2499 15 15.6424 15.163 15.9691 15.4891C16.2952 15.8158 16.4583 16.2083 16.4583 16.6666C16.4583 17.125 16.2952 17.5175 15.9691 17.8441C15.6424 18.1702 15.2499 18.3333 14.7916 18.3333ZM5.74992 4.99996L7.74992 9.16663H13.5833L15.8749 4.99996H5.74992ZM6.45825 14.1666C5.83325 14.1666 5.36103 13.8922 5.04159 13.3433C4.72214 12.795 4.70825 12.25 4.99992 11.7083L6.12492 9.66663L3.12492 3.33329H2.27075C2.03464 3.33329 1.8402 3.25329 1.68742 3.09329C1.53464 2.93385 1.45825 2.73607 1.45825 2.49996C1.45825 2.26385 1.53825 2.06579 1.69825 1.90579C1.8577 1.74635 2.05547 1.66663 2.29159 1.66663H3.64575C3.79853 1.66663 3.94436 1.70829 4.08325 1.79163C4.22214 1.87496 4.32631 1.99301 4.39575 2.14579L4.95825 3.33329H17.2499C17.6249 3.33329 17.8819 3.47218 18.0208 3.74996C18.1596 4.02774 18.1527 4.3194 17.9999 4.62496L15.0416 9.95829C14.8888 10.2361 14.6874 10.4513 14.4374 10.6041C14.1874 10.7569 13.9027 10.8333 13.5833 10.8333H7.37492L6.45825 12.5H15.6458C15.8819 12.5 16.0763 12.5797 16.2291 12.7391C16.3819 12.8991 16.4583 13.0972 16.4583 13.3333C16.4583 13.5694 16.3783 13.7672 16.2183 13.9266C16.0588 14.0866 15.861 14.1666 15.6249 14.1666H6.45825ZM7.74992 9.16663H13.5833H7.74992Z" fill="#0A1429"/>
</g>
</svg>
