<svg width="22" height="16" viewBox="0 0 22 16" fill="none" xmlns="http://www.w3.org/2000/svg">
<path d="M14.63 9.37611L10.67 5.58352C10.56 5.47817 10.4823 5.36405 10.4368 5.24114C10.3906 5.11823 10.3675 4.98654 10.3675 4.84608C10.3675 4.70561 10.3906 4.57392 10.4368 4.45102C10.4823 4.32811 10.56 4.21398 10.67 4.10863L14.63 0.316048C14.85 0.105349 15.1067 0 15.4 0C15.6933 0 15.95 0.105349 16.17 0.316048C16.39 0.526747 16.5 0.776777 16.5 1.06614C16.5 1.3562 16.39 1.60658 16.17 1.81728L14.1075 3.79258H20.9C21.2117 3.79258 21.4727 3.89337 21.6832 4.09494C21.8944 4.29721 22 4.54759 22 4.84608C22 5.14457 21.8944 5.3946 21.6832 5.59617C21.4727 5.79844 21.2117 5.89957 20.9 5.89957H14.1075L16.17 7.87488C16.39 8.08558 16.5 8.33139 16.5 8.61232C16.5 8.89325 16.39 9.13907 16.17 9.34977C15.95 9.56047 15.6981 9.6746 15.4143 9.69216C15.1298 9.70971 14.8683 9.60436 14.63 9.37611ZM5.83 15.6707C6.05 15.8814 6.30667 15.991 6.6 15.9994C6.89333 16.0086 7.15 15.9078 7.37 15.6971L11.33 11.9045C11.44 11.7991 11.5181 11.685 11.5643 11.5621C11.6098 11.4392 11.6325 11.3075 11.6325 11.167C11.6325 11.0266 11.6098 10.8949 11.5643 10.772C11.5181 10.6491 11.44 10.535 11.33 10.4296L7.37 6.63702C7.15 6.42632 6.89333 6.32097 6.6 6.32097C6.30667 6.32097 6.05 6.42632 5.83 6.63702C5.61 6.84772 5.5 7.09775 5.5 7.38711C5.5 7.67717 5.61 7.92755 5.83 8.13825L7.8925 10.1136H1.1C0.788333 10.1136 0.527267 10.2143 0.3168 10.4159C0.1056 10.6182 0 10.8686 0 11.167C0 11.4655 0.1056 11.7156 0.3168 11.9171C0.527267 12.1194 0.788333 12.2205 1.1 12.2205H7.8925L5.83 14.1958C5.61 14.4065 5.5 14.6524 5.5 14.9333C5.5 15.2142 5.61 15.46 5.83 15.6707Z" fill="#0A1429"/>
</svg>
