<svg width="20" height="20" viewBox="0 0 20 20" fill="none" xmlns="http://www.w3.org/2000/svg">
<g id="Profile Icons">
<path id="Vector" d="M10.0001 12.9166C9.22656 12.9166 8.4847 12.6093 7.93772 12.0624C7.39073 11.5154 7.08344 10.7735 7.08344 9.99996C7.08344 9.22641 7.39073 8.48455 7.93772 7.93757C8.4847 7.39058 9.22656 7.08329 10.0001 7.08329C10.7737 7.08329 11.5155 7.39058 12.0625 7.93757C12.6095 8.48455 12.9168 9.22641 12.9168 9.99996C12.9168 10.7735 12.6095 11.5154 12.0625 12.0624C11.5155 12.6093 10.7737 12.9166 10.0001 12.9166ZM16.1918 10.8083C16.2251 10.5416 16.2501 10.275 16.2501 9.99996C16.2501 9.72496 16.2251 9.44996 16.1918 9.16663L17.9501 7.80829C18.1084 7.68329 18.1501 7.45829 18.0501 7.27496L16.3834 4.39163C16.2834 4.20829 16.0584 4.13329 15.8751 4.20829L13.8001 5.04163C13.3668 4.71663 12.9168 4.43329 12.3918 4.22496L12.0834 2.01663C12.0665 1.91848 12.0154 1.82948 11.9391 1.76542C11.8629 1.70136 11.7664 1.66636 11.6668 1.66663H8.33344C8.12511 1.66663 7.95011 1.81663 7.91678 2.01663L7.60844 4.22496C7.08344 4.43329 6.63344 4.71663 6.20011 5.04163L4.12511 4.20829C3.94178 4.13329 3.71678 4.20829 3.61678 4.39163L1.95011 7.27496C1.84178 7.45829 1.89178 7.68329 2.05011 7.80829L3.80844 9.16663C3.77511 9.44996 3.75011 9.72496 3.75011 9.99996C3.75011 10.275 3.77511 10.5416 3.80844 10.8083L2.05011 12.1916C1.89178 12.3166 1.84178 12.5416 1.95011 12.725L3.61678 15.6083C3.71678 15.7916 3.94178 15.8583 4.12511 15.7916L6.20011 14.95C6.63344 15.2833 7.08344 15.5666 7.60844 15.775L7.91678 17.9833C7.95011 18.1833 8.12511 18.3333 8.33344 18.3333H11.6668C11.8751 18.3333 12.0501 18.1833 12.0834 17.9833L12.3918 15.775C12.9168 15.5583 13.3668 15.2833 13.8001 14.95L15.8751 15.7916C16.0584 15.8583 16.2834 15.7916 16.3834 15.6083L18.0501 12.725C18.1501 12.5416 18.1084 12.3166 17.9501 12.1916L16.1918 10.8083Z" fill="#0A1429"/>
</g>
</svg>
